<svg width="100" height="877" viewBox="0 0 100 877" fill="none" xmlns="http://www.w3.org/2000/svg">
<path fill-rule="evenodd" clip-rule="evenodd" d="M56.592 40.0205L50 0L43.408 40.0205C45.4255 40.2249 47 41.9286 47 44C47 46.2091 45.2091 48 43 48C40.7909 48 39 46.2091 39 44C39 43.8555 39.0077 43.7129 39.0226 43.5724L0 50L39.0226 56.4276C39.0077 56.2871 39 56.1445 39 56C39 53.7909 40.7909 52 43 52C45.2091 52 47 53.7909 47 56C47 58.2091 45.2091 60 43 60C42.9847 60 42.9694 59.9999 42.9542 59.9997L50 876.5L57.0458 59.9997C57.0306 59.9999 57.0153 60 57 60C54.7909 60 53 58.2091 53 56C53 53.7909 54.7909 52 57 52C59.2091 52 61 53.7909 61 56C61 56.1445 60.9923 56.2871 60.9774 56.4276L100 50L60.9774 43.5724C60.9923 43.7129 61 43.8555 61 44C61 46.2091 59.2091 48 57 48C54.7909 48 53 46.2091 53 44C53 41.9286 54.5745 40.2249 56.592 40.0205Z" fill="white"/>
</svg>
