<svg width="984" height="168" viewBox="0 0 984 168" fill="none" xmlns="http://www.w3.org/2000/svg">
<path d="M502.95 31L506.761 64.0553L529.9 69.5L506.761 74.9447L502.95 108L499.139 74.9447L476 69.5L499.139 64.0553L502.95 31Z" fill="white"/>
<path d="M27.9 39.55C27.75 55.6 17.1 75.85 16.35 94.3C15.6 119.05 32.85 130.45 50.85 130.45C59.85 130.45 72.9 127.6 73.95 112H75.45C74.7 135.4 62.7 145.6 46.8 145.6C31.5 145.6 22.8 136 15.3 136C13.5 136 11.7 136.6 10.05 137.95C3.6 127.75 4.65 113.2 7.2 100.75C12.75 74.05 24.9 58.75 24.9 39.55V33.55C24.9 26.35 21 21.55 14.55 21.55V20.05H39.6L64.2 97.15L88.65 20.05H115.5V21.55C108.9 21.55 105 26.35 105 33.55V110.5C105 117.7 108.9 122.5 115.5 122.5V124H78.3V122.5C84.9 122.5 88.65 117.7 88.65 110.5V29.8L58.8 124H55.5L27.9 37.3V39.55ZM147.491 124V122.5C154.091 122.5 157.991 117.7 157.991 110.5V71.8L139.541 33.55C135.941 26.2 128.891 21.55 122.291 21.55V20.05H161.141V21.55C154.691 21.55 154.091 26.2 157.691 33.55L172.691 64.6L187.841 33.55C191.591 26.05 191.891 21.55 185.441 21.55V20.05H209.591V21.55C202.991 21.55 195.041 26.05 191.291 33.55L174.191 68.2V110.5C174.191 117.7 178.091 122.5 184.691 122.5V124H147.491ZM213.231 125.5L208.731 90.55H210.231C212.931 103.9 221.631 122.5 241.431 122.5C252.681 122.5 261.081 116.35 261.081 104.95C261.081 76.3 208.131 79.3 208.131 46C208.131 30.85 219.081 18.55 245.181 18.55C254.481 18.55 260.181 20.05 262.731 20.05C263.931 20.05 264.531 19.75 264.531 18.85V18.55H266.031L270.531 53.5H269.031C266.331 40.15 257.631 21.55 239.781 21.55C229.581 21.55 222.381 27.55 222.381 38.05C222.381 66.55 275.331 63.25 275.331 97C275.331 113.2 263.031 125.5 234.981 125.5C225.081 125.5 219.231 124 216.531 124C215.331 124 214.731 124.3 214.731 125.2V125.5H213.231ZM305.343 23.05H299.343C284.643 23.05 282.243 32.35 277.893 44.05H276.393L279.993 18.55H281.493C281.793 19.6 282.693 20.05 283.593 20.05H343.443C344.343 20.05 345.243 19.6 345.543 18.55H347.043L350.643 44.05H349.143C344.793 32.35 342.243 23.05 327.543 23.05H321.693V110.5C321.693 117.7 325.593 122.5 332.043 122.5V124H294.993V122.5C301.443 122.5 305.343 117.7 305.343 110.5V23.05ZM381.315 110.5C381.315 117.7 385.215 122.5 391.665 122.5V124H354.615V122.5C361.215 122.5 364.965 117.7 364.965 110.5V33.55C364.965 26.35 361.215 21.55 354.615 21.55V20.05H391.665V21.55C385.215 21.55 381.315 26.35 381.315 33.55V110.5ZM464.296 18.85V18.55H465.796L470.296 53.5H468.796C466.096 40.15 457.396 21.55 439.696 21.55C423.646 21.55 414.196 37 414.196 63.4C414.196 92.5 425.746 112.15 443.896 112.15C453.796 112.15 470.746 106.15 470.446 73.15L471.946 73.3C473.746 97.15 466.996 125.5 438.946 125.5C414.046 125.5 397.096 103.15 397.096 70C397.096 38.95 411.796 18.55 445.096 18.55C454.246 18.55 459.946 20.05 462.496 20.05C463.696 20.05 464.296 19.75 464.296 18.85ZM552.054 116.2C551.004 121.45 553.854 122.5 558.204 122.5V124H523.554V122.5C530.004 122.5 536.004 117.25 537.204 110.5L542.454 80.2L532.104 33.55C530.604 26.8 528.354 21.55 521.754 21.55V20.05H558.804V21.55C552.354 21.55 546.954 26.8 548.454 33.55L558.054 77.2L585.954 33.55C590.604 26.2 589.404 21.55 582.954 21.55V20.05H607.254V21.55C600.804 21.55 594.204 26.2 589.404 33.55L577.704 52C572.304 70.75 582.654 103.15 591.504 116.95C598.704 128.05 613.254 139.9 628.104 139.9C634.404 139.9 641.004 137.65 646.854 132.1L647.754 133.3C634.254 152.65 614.304 150.85 612.654 158.65C605.754 156.7 594.354 147.4 585.804 134.05C573.204 114.7 565.554 85.15 569.754 64.6L558.954 81.4L552.054 116.2ZM652.147 20.05H655.297L685.297 110.5C687.547 117.7 693.397 122.5 699.997 122.5V124H661.897V122.5C668.497 122.5 670.447 117.7 668.047 110.5L663.847 98.05H629.347L625.297 110.5C622.897 117.7 624.847 122.5 631.297 122.5V124H607.447V122.5C614.047 122.5 619.747 117.7 622.147 110.5L652.147 20.05ZM630.247 95.05H662.947L646.597 45.85L630.247 95.05ZM734.489 110.5C734.489 117.7 738.389 122.5 744.839 122.5V124H707.789V122.5C714.389 122.5 718.139 117.7 718.139 110.5V33.55C718.139 26.35 714.389 21.55 707.789 21.55V20.05H744.839V21.55C738.389 21.55 734.489 26.35 734.489 33.55V110.5ZM774.541 23.05C759.841 23.05 757.441 32.35 753.091 44.05H751.591L755.191 18.55H756.691C756.991 19.6 757.891 20.05 758.641 20.05H816.691L770.791 121H791.941C806.641 121 809.191 111.7 813.541 99.85H815.041L811.441 125.5H809.941C809.641 124.45 808.741 124 807.841 124H751.441L797.341 23.05H774.541ZM823.072 124V122.5C829.672 122.5 833.422 117.7 833.422 110.5V33.55C833.422 26.35 829.672 21.55 823.072 21.55V20.05H883.072C883.972 20.05 884.872 19.6 885.172 18.55H886.672L890.122 44.05H888.622C884.422 32.35 881.872 23.05 867.172 23.05H849.772V70.6H867.472C876.172 70.6 879.472 56.2 879.472 49.75H880.972V94.3H879.472C879.472 87.7 876.172 73.45 867.472 73.45H849.772V121H867.172C881.872 121 884.422 111.7 888.622 99.85H890.122L886.672 125.5H885.172C884.872 124.45 883.972 124 883.072 124H823.072ZM894.264 124V122.5C900.864 122.5 904.614 117.7 904.614 110.5V33.55C904.614 26.35 900.864 21.55 894.264 21.55V20.05H937.314C955.314 20.05 964.014 28.75 964.014 46.75C964.014 61 958.614 69.55 947.064 72.4L963.264 110.5C966.264 117.55 971.514 122.5 977.964 122.5V124H950.814L930.264 73.45H920.964V110.5C920.964 117.7 924.864 122.5 931.314 122.5V124H894.264ZM923.214 23.05H920.964V70.6H923.214C939.114 70.6 946.914 62.65 946.914 46.75C946.914 30.85 939.114 23.05 923.214 23.05Z" fill="url(#paint0_linear_20_289)"/>
<defs>
<linearGradient id="paint0_linear_20_289" x1="492" y1="0" x2="492" y2="168" gradientUnits="userSpaceOnUse">
<stop stop-color="white"/>
<stop offset="1" stop-color="white" stop-opacity="0.8"/>
</linearGradient>
</defs>
</svg>
